<?xml version="1.0" encoding="utf-8"?>
<svg version="1.1" xmlns="http://www.w3.org/2000/svg" xmlns:xlink="http://www.w3.org/1999/xlink" x="0px" y="0px"
     xml:space="preserve">
    <symbol id="icon-zoomin" viewBox="0 0 96 96">
        <path d="M56.8,21.8l6.7,6.7L55,36.8l4.1,4.1l8.4-8.4l6.7,6.7V21.8H56.8z M21.8,39.3l6.7-6.7l8.4,8.4
        l4.1-4.1l-8.4-8.4l6.7-6.7H21.8V39.3z M39.3,74.3l-6.7-6.7l8.4-8.4L36.8,55l-8.4,8.4l-6.7-6.7v17.5H39.3z M74.3,56.8l-6.7,6.7
        L59.2,55L55,59.2l8.4,8.4l-6.7,6.7h17.5V56.8z"/>
    </symbol>
    <symbol id="icon-zoomout" viewBox="-80 -100 450 450">
        <g>
            <polygon
                    points="252.199,71.316 300.193,23.322 277.566,0.695 229.572,48.689 205.979,25.097 183.097,117.597 276.616,95.734"/>
            <polygon
                    points="70.621,48.689 22.627,0.695 0,23.322 47.994,71.316 23.575,95.734 117.097,117.597 94.214,25.097"/>
            <polygon
                    points="276.616,204.459 183.097,182.597 205.979,275.097 229.572,251.504 277.566,299.498 300.193,276.871 252.199,228.877"/>
            <polygon
                    points="47.994,228.877 0,276.871 22.627,299.498 70.621,251.504 94.214,275.097 117.097,182.597 23.575,204.459"/>
        </g>
    </symbol>
</svg>
